<?xml version="1.0" encoding="UTF-8" standalone="no"?>
<!DOCTYPE svg PUBLIC "-//W3C//DTD SVG 1.1//EN" "http://www.w3.org/Graphics/SVG/1.1/DTD/svg11.dtd">
<svg width="100%" height="100%" viewBox="0 0 626 487" version="1.1" xmlns="http://www.w3.org/2000/svg" xmlns:xlink="http://www.w3.org/1999/xlink" xml:space="preserve" xmlns:serif="http://www.serif.com/" style="fill-rule:evenodd;clip-rule:evenodd;stroke-linejoin:round;stroke-miterlimit:2;">
    <g transform="matrix(1,0,0,1,-736.842,-62.312)">
        <g opacity="0.2">
            <g transform="matrix(-64.0932,0,0,64.0932,1218.25,549.192)">
                <path d="M4.916,-0.293C4.732,-0.098 4.473,0 4.137,0C3.801,0 3.541,-0.099 3.357,-0.296C3.174,-0.493 3.082,-0.771 3.082,-1.131L3.082,-2.426L1.828,-2.426C1.488,-2.426 1.226,-2.515 1.04,-2.692C0.854,-2.87 0.762,-3.121 0.762,-3.445C0.762,-3.77 0.854,-4.021 1.04,-4.198C1.226,-4.376 1.488,-4.465 1.828,-4.465L3.082,-4.465L3.082,-5.771C3.082,-6.127 3.175,-6.403 3.36,-6.601C3.546,-6.798 3.805,-6.896 4.137,-6.896C4.473,-6.896 4.732,-6.798 4.916,-6.601C5.1,-6.403 5.191,-6.127 5.191,-5.771L5.191,-4.465L6.439,-4.465C6.779,-4.465 7.043,-4.376 7.23,-4.198C7.418,-4.021 7.512,-3.77 7.512,-3.445C7.512,-3.121 7.417,-2.87 7.228,-2.692C7.038,-2.515 6.771,-2.426 6.428,-2.426L5.191,-2.426L5.191,-1.125C5.191,-0.77 5.1,-0.492 4.916,-0.293Z" style="fill:url(#_Linear1);fill-rule:nonzero;"/>
            </g>
            <g transform="matrix(-13.1048,0,0,13.1048,1200.25,213.732)">
                <path d="M4.916,-0.293C4.732,-0.098 4.473,0 4.137,0C3.801,0 3.541,-0.099 3.357,-0.296C3.174,-0.493 3.082,-0.771 3.082,-1.131L3.082,-2.426L1.828,-2.426C1.488,-2.426 1.226,-2.515 1.04,-2.692C0.854,-2.87 0.762,-3.121 0.762,-3.445C0.762,-3.77 0.854,-4.021 1.04,-4.198C1.226,-4.376 1.488,-4.465 1.828,-4.465L3.082,-4.465L3.082,-5.771C3.082,-6.127 3.175,-6.403 3.36,-6.601C3.546,-6.798 3.805,-6.896 4.137,-6.896C4.473,-6.896 4.732,-6.798 4.916,-6.601C5.1,-6.403 5.191,-6.127 5.191,-5.771L5.191,-4.465L6.439,-4.465C6.779,-4.465 7.043,-4.376 7.23,-4.198C7.418,-4.021 7.512,-3.77 7.512,-3.445C7.512,-3.121 7.417,-2.87 7.228,-2.692C7.038,-2.515 6.771,-2.426 6.428,-2.426L5.191,-2.426L5.191,-1.125C5.191,-0.77 5.1,-0.492 4.916,-0.293Z" style="fill:url(#_Linear2);fill-rule:nonzero;"/>
            </g>
            <g transform="matrix(-13.1048,0,0,13.1048,1305.07,345.122)">
                <path d="M4.916,-0.293C4.732,-0.098 4.473,0 4.137,0C3.801,0 3.541,-0.099 3.357,-0.296C3.174,-0.493 3.082,-0.771 3.082,-1.131L3.082,-2.426L1.828,-2.426C1.488,-2.426 1.226,-2.515 1.04,-2.692C0.854,-2.87 0.762,-3.121 0.762,-3.445C0.762,-3.77 0.854,-4.021 1.04,-4.198C1.226,-4.376 1.488,-4.465 1.828,-4.465L3.082,-4.465L3.082,-5.771C3.082,-6.127 3.175,-6.403 3.36,-6.601C3.546,-6.798 3.805,-6.896 4.137,-6.896C4.473,-6.896 4.732,-6.798 4.916,-6.601C5.1,-6.403 5.191,-6.127 5.191,-5.771L5.191,-4.465L6.439,-4.465C6.779,-4.465 7.043,-4.376 7.23,-4.198C7.418,-4.021 7.512,-3.77 7.512,-3.445C7.512,-3.121 7.417,-2.87 7.228,-2.692C7.038,-2.515 6.771,-2.426 6.428,-2.426L5.191,-2.426L5.191,-1.125C5.191,-0.77 5.1,-0.492 4.916,-0.293Z" style="fill:url(#_Linear3);fill-rule:nonzero;"/>
            </g>
            <g transform="matrix(-6.55242,0,0,6.55242,1277.95,213.738)">
                <path d="M4.916,-0.293C4.732,-0.098 4.473,0 4.137,0C3.801,0 3.541,-0.099 3.357,-0.296C3.174,-0.493 3.082,-0.771 3.082,-1.131L3.082,-2.426L1.828,-2.426C1.488,-2.426 1.226,-2.515 1.04,-2.692C0.854,-2.87 0.762,-3.121 0.762,-3.445C0.762,-3.77 0.854,-4.021 1.04,-4.198C1.226,-4.376 1.488,-4.465 1.828,-4.465L3.082,-4.465L3.082,-5.771C3.082,-6.127 3.175,-6.403 3.36,-6.601C3.546,-6.798 3.805,-6.896 4.137,-6.896C4.473,-6.896 4.732,-6.798 4.916,-6.601C5.1,-6.403 5.191,-6.127 5.191,-5.771L5.191,-4.465L6.439,-4.465C6.779,-4.465 7.043,-4.376 7.23,-4.198C7.418,-4.021 7.512,-3.77 7.512,-3.445C7.512,-3.121 7.417,-2.87 7.228,-2.692C7.038,-2.515 6.771,-2.426 6.428,-2.426L5.191,-2.426L5.191,-1.125C5.191,-0.77 5.1,-0.492 4.916,-0.293Z" style="fill:url(#_Linear4);fill-rule:nonzero;"/>
            </g>
            <g transform="matrix(-6.55242,0,0,6.55242,1106.78,245.718)">
                <path d="M4.916,-0.293C4.732,-0.098 4.473,0 4.137,0C3.801,0 3.541,-0.099 3.357,-0.296C3.174,-0.493 3.082,-0.771 3.082,-1.131L3.082,-2.426L1.828,-2.426C1.488,-2.426 1.226,-2.515 1.04,-2.692C0.854,-2.87 0.762,-3.121 0.762,-3.445C0.762,-3.77 0.854,-4.021 1.04,-4.198C1.226,-4.376 1.488,-4.465 1.828,-4.465L3.082,-4.465L3.082,-5.771C3.082,-6.127 3.175,-6.403 3.36,-6.601C3.546,-6.798 3.805,-6.896 4.137,-6.896C4.473,-6.896 4.732,-6.798 4.916,-6.601C5.1,-6.403 5.191,-6.127 5.191,-5.771L5.191,-4.465L6.439,-4.465C6.779,-4.465 7.043,-4.376 7.23,-4.198C7.418,-4.021 7.512,-3.77 7.512,-3.445C7.512,-3.121 7.417,-2.87 7.228,-2.692C7.038,-2.515 6.771,-2.426 6.428,-2.426L5.191,-2.426L5.191,-1.125C5.191,-0.77 5.1,-0.492 4.916,-0.293Z" style="fill:url(#_Linear5);fill-rule:nonzero;"/>
            </g>
            <g transform="matrix(-8.85216,0,0,8.85216,1086.43,123.359)">
                <path d="M4.916,-0.293C4.732,-0.098 4.473,0 4.137,0C3.801,0 3.541,-0.099 3.357,-0.296C3.174,-0.493 3.082,-0.771 3.082,-1.131L3.082,-2.426L1.828,-2.426C1.488,-2.426 1.226,-2.515 1.04,-2.692C0.854,-2.87 0.762,-3.121 0.762,-3.445C0.762,-3.77 0.854,-4.021 1.04,-4.198C1.226,-4.376 1.488,-4.465 1.828,-4.465L3.082,-4.465L3.082,-5.771C3.082,-6.127 3.175,-6.403 3.36,-6.601C3.546,-6.798 3.805,-6.896 4.137,-6.896C4.473,-6.896 4.732,-6.798 4.916,-6.601C5.1,-6.403 5.191,-6.127 5.191,-5.771L5.191,-4.465L6.439,-4.465C6.779,-4.465 7.043,-4.376 7.23,-4.198C7.418,-4.021 7.512,-3.77 7.512,-3.445C7.512,-3.121 7.417,-2.87 7.228,-2.692C7.038,-2.515 6.771,-2.426 6.428,-2.426L5.191,-2.426L5.191,-1.125C5.191,-0.77 5.1,-0.492 4.916,-0.293Z" style="fill:url(#_Linear6);fill-rule:nonzero;"/>
            </g>
            <g transform="matrix(-9.67342,0,0,9.67342,1158.93,525.966)">
                <path d="M4.916,-0.293C4.732,-0.098 4.473,0 4.137,0C3.801,0 3.541,-0.099 3.357,-0.296C3.174,-0.493 3.082,-0.771 3.082,-1.131L3.082,-2.426L1.828,-2.426C1.488,-2.426 1.226,-2.515 1.04,-2.692C0.854,-2.87 0.762,-3.121 0.762,-3.445C0.762,-3.77 0.854,-4.021 1.04,-4.198C1.226,-4.376 1.488,-4.465 1.828,-4.465L3.082,-4.465L3.082,-5.771C3.082,-6.127 3.175,-6.403 3.36,-6.601C3.546,-6.798 3.805,-6.896 4.137,-6.896C4.473,-6.896 4.732,-6.798 4.916,-6.601C5.1,-6.403 5.191,-6.127 5.191,-5.771L5.191,-4.465L6.439,-4.465C6.779,-4.465 7.043,-4.376 7.23,-4.198C7.418,-4.021 7.512,-3.77 7.512,-3.445C7.512,-3.121 7.417,-2.87 7.228,-2.692C7.038,-2.515 6.771,-2.426 6.428,-2.426L5.191,-2.426L5.191,-1.125C5.191,-0.77 5.1,-0.492 4.916,-0.293Z" style="fill:url(#_Linear7);fill-rule:nonzero;"/>
            </g>
            <g transform="matrix(-6.17758,0,0,6.17758,1191.15,447.196)">
                <path d="M4.916,-0.293C4.732,-0.098 4.473,0 4.137,0C3.801,0 3.541,-0.099 3.357,-0.296C3.174,-0.493 3.082,-0.771 3.082,-1.131L3.082,-2.426L1.828,-2.426C1.488,-2.426 1.226,-2.515 1.04,-2.692C0.854,-2.87 0.762,-3.121 0.762,-3.445C0.762,-3.77 0.854,-4.021 1.04,-4.198C1.226,-4.376 1.488,-4.465 1.828,-4.465L3.082,-4.465L3.082,-5.771C3.082,-6.127 3.175,-6.403 3.36,-6.601C3.546,-6.798 3.805,-6.896 4.137,-6.896C4.473,-6.896 4.732,-6.798 4.916,-6.601C5.1,-6.403 5.191,-6.127 5.191,-5.771L5.191,-4.465L6.439,-4.465C6.779,-4.465 7.043,-4.376 7.23,-4.198C7.418,-4.021 7.512,-3.77 7.512,-3.445C7.512,-3.121 7.417,-2.87 7.228,-2.692C7.038,-2.515 6.771,-2.426 6.428,-2.426L5.191,-2.426L5.191,-1.125C5.191,-0.77 5.1,-0.492 4.916,-0.293Z" style="fill:url(#_Linear8);fill-rule:nonzero;"/>
            </g>
            <g transform="matrix(-4.42608,0,0,4.42608,1183.89,92.8346)">
                <path d="M4.916,-0.293C4.732,-0.098 4.473,0 4.137,0C3.801,0 3.541,-0.099 3.357,-0.296C3.174,-0.493 3.082,-0.771 3.082,-1.131L3.082,-2.426L1.828,-2.426C1.488,-2.426 1.226,-2.515 1.04,-2.692C0.854,-2.87 0.762,-3.121 0.762,-3.445C0.762,-3.77 0.854,-4.021 1.04,-4.198C1.226,-4.376 1.488,-4.465 1.828,-4.465L3.082,-4.465L3.082,-5.771C3.082,-6.127 3.175,-6.403 3.36,-6.601C3.546,-6.798 3.805,-6.896 4.137,-6.896C4.473,-6.896 4.732,-6.798 4.916,-6.601C5.1,-6.403 5.191,-6.127 5.191,-5.771L5.191,-4.465L6.439,-4.465C6.779,-4.465 7.043,-4.376 7.23,-4.198C7.418,-4.021 7.512,-3.77 7.512,-3.445C7.512,-3.121 7.417,-2.87 7.228,-2.692C7.038,-2.515 6.771,-2.426 6.428,-2.426L5.191,-2.426L5.191,-1.125C5.191,-0.77 5.1,-0.492 4.916,-0.293Z" style="fill:url(#_Linear9);fill-rule:nonzero;"/>
            </g>
            <g transform="matrix(-4.42608,0,0,4.42608,1223.5,541.224)">
                <path d="M4.916,-0.293C4.732,-0.098 4.473,0 4.137,0C3.801,0 3.541,-0.099 3.357,-0.296C3.174,-0.493 3.082,-0.771 3.082,-1.131L3.082,-2.426L1.828,-2.426C1.488,-2.426 1.226,-2.515 1.04,-2.692C0.854,-2.87 0.762,-3.121 0.762,-3.445C0.762,-3.77 0.854,-4.021 1.04,-4.198C1.226,-4.376 1.488,-4.465 1.828,-4.465L3.082,-4.465L3.082,-5.771C3.082,-6.127 3.175,-6.403 3.36,-6.601C3.546,-6.798 3.805,-6.896 4.137,-6.896C4.473,-6.896 4.732,-6.798 4.916,-6.601C5.1,-6.403 5.191,-6.127 5.191,-5.771L5.191,-4.465L6.439,-4.465C6.779,-4.465 7.043,-4.376 7.23,-4.198C7.418,-4.021 7.512,-3.77 7.512,-3.445C7.512,-3.121 7.417,-2.87 7.228,-2.692C7.038,-2.515 6.771,-2.426 6.428,-2.426L5.191,-2.426L5.191,-1.125C5.191,-0.77 5.1,-0.492 4.916,-0.293Z" style="fill:url(#_Linear10);fill-rule:nonzero;"/>
            </g>
            <g transform="matrix(-4.42608,0,0,4.42608,1365.46,285.275)">
                <path d="M4.916,-0.293C4.732,-0.098 4.473,0 4.137,0C3.801,0 3.541,-0.099 3.357,-0.296C3.174,-0.493 3.082,-0.771 3.082,-1.131L3.082,-2.426L1.828,-2.426C1.488,-2.426 1.226,-2.515 1.04,-2.692C0.854,-2.87 0.762,-3.121 0.762,-3.445C0.762,-3.77 0.854,-4.021 1.04,-4.198C1.226,-4.376 1.488,-4.465 1.828,-4.465L3.082,-4.465L3.082,-5.771C3.082,-6.127 3.175,-6.403 3.36,-6.601C3.546,-6.798 3.805,-6.896 4.137,-6.896C4.473,-6.896 4.732,-6.798 4.916,-6.601C5.1,-6.403 5.191,-6.127 5.191,-5.771L5.191,-4.465L6.439,-4.465C6.779,-4.465 7.043,-4.376 7.23,-4.198C7.418,-4.021 7.512,-3.77 7.512,-3.445C7.512,-3.121 7.417,-2.87 7.228,-2.692C7.038,-2.515 6.771,-2.426 6.428,-2.426L5.191,-2.426L5.191,-1.125C5.191,-0.77 5.1,-0.492 4.916,-0.293Z" style="fill:url(#_Linear11);fill-rule:nonzero;"/>
            </g>
            <g transform="matrix(-7.73004,0,0,7.73004,1287.84,467.147)">
                <path d="M4.916,-0.293C4.732,-0.098 4.473,0 4.137,0C3.801,0 3.541,-0.099 3.357,-0.296C3.174,-0.493 3.082,-0.771 3.082,-1.131L3.082,-2.426L1.828,-2.426C1.488,-2.426 1.226,-2.515 1.04,-2.692C0.854,-2.87 0.762,-3.121 0.762,-3.445C0.762,-3.77 0.854,-4.021 1.04,-4.198C1.226,-4.376 1.488,-4.465 1.828,-4.465L3.082,-4.465L3.082,-5.771C3.082,-6.127 3.175,-6.403 3.36,-6.601C3.546,-6.798 3.805,-6.896 4.137,-6.896C4.473,-6.896 4.732,-6.798 4.916,-6.601C5.1,-6.403 5.191,-6.127 5.191,-5.771L5.191,-4.465L6.439,-4.465C6.779,-4.465 7.043,-4.376 7.23,-4.198C7.418,-4.021 7.512,-3.77 7.512,-3.445C7.512,-3.121 7.417,-2.87 7.228,-2.692C7.038,-2.515 6.771,-2.426 6.428,-2.426L5.191,-2.426L5.191,-1.125C5.191,-0.77 5.1,-0.492 4.916,-0.293Z" style="fill:url(#_Linear12);fill-rule:nonzero;"/>
            </g>
        </g>
    </g>
    <defs>
        <linearGradient id="_Linear1" x1="0" y1="0" x2="1" y2="0" gradientUnits="userSpaceOnUse" gradientTransform="matrix(-8.63389,-7.9624,-7.9624,8.63389,7.51113,1.38404)"><stop offset="0" style="stop-color:white;stop-opacity:0"/><stop offset="1" style="stop-color:rgb(134,0,255);stop-opacity:1"/></linearGradient>
        <linearGradient id="_Linear2" x1="0" y1="0" x2="1" y2="0" gradientUnits="userSpaceOnUse" gradientTransform="matrix(-42.2268,-38.9427,-38.9427,42.2268,35.3619,32.3673)"><stop offset="0" style="stop-color:white;stop-opacity:0"/><stop offset="1" style="stop-color:rgb(134,0,255);stop-opacity:1"/></linearGradient>
        <linearGradient id="_Linear3" x1="0" y1="0" x2="1" y2="0" gradientUnits="userSpaceOnUse" gradientTransform="matrix(-42.2268,-38.9427,-38.9427,42.2268,43.3605,22.3412)"><stop offset="0" style="stop-color:white;stop-opacity:0"/><stop offset="1" style="stop-color:rgb(134,0,255);stop-opacity:1"/></linearGradient>
        <linearGradient id="_Linear4" x1="0" y1="0" x2="1" y2="0" gradientUnits="userSpaceOnUse" gradientTransform="matrix(-84.4533,-77.8851,-77.8851,84.4533,82.5815,64.7336)"><stop offset="0" style="stop-color:white;stop-opacity:0"/><stop offset="1" style="stop-color:rgb(134,0,255);stop-opacity:1"/></linearGradient>
        <linearGradient id="_Linear5" x1="0" y1="0" x2="1" y2="0" gradientUnits="userSpaceOnUse" gradientTransform="matrix(-84.4533,-77.8851,-77.8851,84.4533,56.4583,59.8529)"><stop offset="0" style="stop-color:white;stop-opacity:0"/><stop offset="1" style="stop-color:rgb(134,0,255);stop-opacity:1"/></linearGradient>
        <linearGradient id="_Linear6" x1="0" y1="0" x2="1" y2="0" gradientUnits="userSpaceOnUse" gradientTransform="matrix(-62.5129,-57.651,-57.651,62.5129,39.4916,58.1259)"><stop offset="0" style="stop-color:white;stop-opacity:0"/><stop offset="1" style="stop-color:rgb(134,0,255);stop-opacity:1"/></linearGradient>
        <linearGradient id="_Linear7" x1="0" y1="0" x2="1" y2="0" gradientUnits="userSpaceOnUse" gradientTransform="matrix(-57.2056,-52.7565,-52.7565,57.2056,43.6341,11.5712)"><stop offset="0" style="stop-color:white;stop-opacity:0"/><stop offset="1" style="stop-color:rgb(134,0,255);stop-opacity:1"/></linearGradient>
        <linearGradient id="_Linear8" x1="0" y1="0" x2="1" y2="0" gradientUnits="userSpaceOnUse" gradientTransform="matrix(-89.5778,-82.611,-82.611,89.5778,73.5409,30.8702)"><stop offset="0" style="stop-color:white;stop-opacity:0"/><stop offset="1" style="stop-color:rgb(134,0,255);stop-opacity:1"/></linearGradient>
        <linearGradient id="_Linear9" x1="0" y1="0" x2="1" y2="0" gradientUnits="userSpaceOnUse" gradientTransform="matrix(-125.026,-115.302,-115.302,125.026,101.004,123.148)"><stop offset="0" style="stop-color:white;stop-opacity:0"/><stop offset="1" style="stop-color:rgb(134,0,255);stop-opacity:1"/></linearGradient>
        <linearGradient id="_Linear10" x1="0" y1="0" x2="1" y2="0" gradientUnits="userSpaceOnUse" gradientTransform="matrix(-125.026,-115.302,-115.302,125.026,109.953,21.8423)"><stop offset="0" style="stop-color:white;stop-opacity:0"/><stop offset="1" style="stop-color:rgb(134,0,255);stop-opacity:1"/></linearGradient>
        <linearGradient id="_Linear11" x1="0" y1="0" x2="1" y2="0" gradientUnits="userSpaceOnUse" gradientTransform="matrix(-125.026,-115.302,-115.302,125.026,142.027,79.6697)"><stop offset="0" style="stop-color:white;stop-opacity:0"/><stop offset="1" style="stop-color:rgb(134,0,255);stop-opacity:1"/></linearGradient>
        <linearGradient id="_Linear12" x1="0" y1="0" x2="1" y2="0" gradientUnits="userSpaceOnUse" gradientTransform="matrix(-71.5874,-66.0198,-66.0198,71.5874,71.2803,22.0894)"><stop offset="0" style="stop-color:white;stop-opacity:0"/><stop offset="1" style="stop-color:rgb(134,0,255);stop-opacity:1"/></linearGradient>
    </defs>
</svg>
